<?xml version="1.0" encoding="utf-8"?>
<!-- Generator: Adobe Illustrator 24.3.0, SVG Export Plug-In . SVG Version: 6.00 Build 0)  -->
<svg version="1.1" id="Слой_1" xmlns="http://www.w3.org/2000/svg" xmlns:xlink="http://www.w3.org/1999/xlink" x="0px" y="0px"
	 viewBox="0 0 26 26" style="enable-background:new 0 0 26 26;" xml:space="preserve">
<style type="text/css">
	.st0{fill:#1D1D1B;}
</style>
<path class="st0" d="M17.3,5.5L17.3,5.5c0-0.5-0.5-1-0.9-1H2C1.5,4.5,1,5,1,5.4v13.4c0,0.4,0.3,0.8,0.8,0.8h3.1c0.3,1.2,1.4,2,2.6,2
	s2.3-0.8,2.6-2h6.5h1.3c0.3,1.2,1.4,2,2.6,2s2.3-0.8,2.6-2h1c0,0,0.1,0,0.1,0c0,0,0.1,0,0.1,0c0.4,0,0.8-0.3,0.8-0.8V13
	C25,9.1,21.6,5.8,17.3,5.5z M23.5,12.5h-2.8c-0.7-0.2-0.9-1.5-0.9-3.5V7.7C21.8,8.6,23.3,10.4,23.5,12.5z M18.8,7.3v1.8
	c0,2.2,0.1,4.2,1.7,4.5c0,0,0.1,0,0.1,0h2.9V18h-0.4c-0.3-1.2-1.4-2-2.6-2s-2.3,0.8-2.6,2h-1.3h-6.5c-0.1-0.4-0.3-0.7-0.6-1h7
	c0.2,0,0.4-0.1,0.5-0.3c0.2-0.1,0.3-0.3,0.3-0.6V7C17.8,7,18.3,7.1,18.8,7.3z M15.8,16H2.5V6h13.3V16z M2.5,17h2.9
	c-0.3,0.3-0.5,0.6-0.6,1H2.5V17z M7.5,20c-0.7,0-1.2-0.6-1.2-1.2s0.6-1.2,1.2-1.2c0.7,0,1.2,0.6,1.2,1.2c0,0,0,0,0,0s0,0,0,0
	C8.7,19.5,8.2,20,7.5,20z M20.5,20c-0.7,0-1.2-0.6-1.2-1.2s0.6-1.2,1.2-1.2s1.2,0.6,1.2,1.2S21.1,20,20.5,20z"/>
</svg>
