<?xml version="1.0" encoding="utf-8"?>
<!-- Generator: Adobe Illustrator 24.3.0, SVG Export Plug-In . SVG Version: 6.00 Build 0)  -->
<svg version="1.1"
	 id="GUIDE" xmlns:cc="http://creativecommons.org/ns#" xmlns:dc="http://purl.org/dc/elements/1.1/" xmlns:inkscape="http://www.inkscape.org/namespaces/inkscape" xmlns:rdf="http://www.w3.org/1999/02/22-rdf-syntax-ns#" xmlns:sodipodi="http://sodipodi.sourceforge.net/DTD/sodipodi-0.dtd" xmlns:svg="http://www.w3.org/2000/svg"
	 xmlns="http://www.w3.org/2000/svg" xmlns:xlink="http://www.w3.org/1999/xlink" x="0px" y="0px" viewBox="0 0 800 800"
	 style="enable-background:new 0 0 800 800;" xml:space="preserve">
<style type="text/css">
	.st0{fill:#1D1D1B;}
</style>
<path class="st0" d="M675.9,407.1v-8.2c0-64.8-52.7-117.5-117.5-117.5H418.9v-50.2c31.6-8.4,55-37.3,55-71.5c0-40.8-33.2-74-74-74
	c-40.8,0-74,33.2-74,74c0,34.2,23.4,63.1,55,71.5v50.2H241.6c-64.8,0-117.5,52.7-117.5,117.5v8.2c-45.9,8.9-80.7,49.4-80.7,97.8
	c0,48.5,34.8,89,80.8,97.8c3.1,62.1,54.6,111.7,117.4,111.7h316.7c62.8,0,114.3-49.6,117.4-111.7c46-8.8,80.8-49.3,80.8-97.8
	C756.6,456.4,721.8,415.9,675.9,407.1z M124.1,563.6c-24.8-8-42.8-31.3-42.8-58.8c0-27.4,18-50.7,42.8-58.8
	C124.1,446.1,124.1,563.6,124.1,563.6z M363.9,159.6c0-19.9,16.2-36.1,36.1-36.1c19.9,0,36.1,16.2,36.1,36.1s-16.2,36.1-36.1,36.1
	C380.1,195.7,363.9,179.5,363.9,159.6z M638,596.8L638,596.8c0,43.9-35.7,79.7-79.7,79.7H241.6c-43.9,0-79.7-35.7-79.7-79.7v-198
	c0-43.9,35.7-79.7,79.7-79.7h316.7c43.9,0,79.7,35.7,79.7,79.7V596.8z M675.9,563.6V446.1c24.8,8,42.8,31.3,42.8,58.8
	C718.7,532.3,700.7,555.6,675.9,563.6z"/>
<path class="st0" d="M538.1,400.6c-30.8,0-55.9,25.1-55.9,55.9c0,30.8,25.1,55.9,55.9,55.9s55.9-25.1,55.9-55.9
	C594,425.7,568.9,400.6,538.1,400.6z M538.1,474.5c-9.9,0-18-8.1-18-18c0-9.9,8.1-18,18-18c9.9,0,18,8.1,18,18
	C556.1,466.4,548,474.5,538.1,474.5z"/>
<path class="st0" d="M261.9,400.6c-30.8,0-55.9,25.1-55.9,55.9c0,30.8,25.1,55.9,55.9,55.9c30.8,0,55.9-25.1,55.9-55.9
	C317.7,425.7,292.7,400.6,261.9,400.6z M261.9,474.5c-9.9,0-18-8.1-18-18c0-9.9,8.1-18,18-18c9.9,0,18,8.1,18,18
	C279.9,466.4,271.8,474.5,261.9,474.5z"/>
<path class="st0" d="M451.6,571.2H348.4c-10.5,0-18.9,8.5-18.9,18.9c0,10.5,8.5,18.9,18.9,18.9h103.2c10.5,0,18.9-8.5,18.9-18.9
	C470.5,579.7,462.1,571.2,451.6,571.2z"/>
</svg>
