<?xml version="1.0" encoding="utf-8"?>
<!-- Generator: Adobe Illustrator 24.3.0, SVG Export Plug-In . SVG Version: 6.00 Build 0)  -->
<svg version="1.1" id="레이어_1" xmlns="http://www.w3.org/2000/svg" xmlns:xlink="http://www.w3.org/1999/xlink" x="0px"
	 y="0px" viewBox="0 0 48 48" style="enable-background:new 0 0 48 48;" xml:space="preserve">
<style type="text/css">
	.st0{fill:none;}
	.st1{fill:#FF394C;}
</style>
<path class="st0" d="M0,0h48v48H0V0z"/>
<path class="st0" d="M0,0h48v48H0V0z"/>
<circle class="st1" cx="31" cy="19" r="3"/>
<circle class="st1" cx="17" cy="19" r="3"/>
<path class="st1" d="M24,4c-11,0-20,9-20,20s8.9,20,20,20c11.1,0,20-9,20-20S35,4,24,4z M24,40c-8.8,0-16-7.2-16-16S15.2,8,24,8
	s16,7.2,16,16S32.8,40,24,40z M24,35c4.7,0,8.6-2.9,10.2-7h-3.3c-1.4,2.4-3.9,4-6.9,4s-5.5-1.6-6.9-4h-3.3C15.4,32.1,19.3,35,24,35z
	"/>
</svg>
