<svg xmlns="http://www.w3.org/2000/svg" viewBox="0 0 110.88 31.19"><defs><style>.cls-1{fill:#fff;}.cls-2{fill:#00adee;}.cls-3{fill:#00aff1;}</style></defs><g id="레이어_1" data-name="레이어 1"><g id="레이어_1-2" data-name="레이어 1"><polygon class="cls-1" points="23.28 13.29 23.28 0.25 23.28 0.01 23.03 0.01 19.65 0.01 19.41 0.01 19.41 0.25 19.41 16.45 19.41 16.69 19.65 16.69 30.11 16.69 31.64 13.29 23.28 13.29"/><polygon class="cls-1" points="43.2 0.01 39.03 0.01 33.08 16.69 33.42 16.69 37.14 16.69 41.08 4.99 44.91 16.69 49.1 16.69 43.2 0.01"/><polygon class="cls-1" points="48.75 0.01 48.75 3.36 53.61 3.36 53.61 16.69 57.51 16.69 57.51 3.36 62.35 3.36 62.35 0.01 48.75 0.01"/><path class="cls-1" d="M14.49,1.32a5.92,5.92,0,0,0-4-1.31H3.3v3.3H10a2.51,2.51,0,0,1,1.65.48,2.06,2.06,0,0,1,.55,1.62,2.19,2.19,0,0,1-.56,1.66A2.33,2.33,0,0,1,10,7.59H3.3v9.1H7.15V10.87h3.12a6.45,6.45,0,0,0,4.22-1.25c1-.83,1.51-2.26,1.51-4.24A5.17,5.17,0,0,0,14.49,1.32Z" transform="translate(0 0)"/><path class="cls-1" d="M108.73,8.73a3.34,3.34,0,0,0,1.54-1.48,5.19,5.19,0,0,0,.61-2.38,4.82,4.82,0,0,0-.32-1.8,4.87,4.87,0,0,0-.85-1.42A4.06,4.06,0,0,0,108.1.45,7.18,7.18,0,0,0,105.46,0h-8v3.3h7.29a3.14,3.14,0,0,1,1.45.25,1.8,1.8,0,0,1,.8,1.77,1.57,1.57,0,0,1-.82,1.6,3.64,3.64,0,0,1-1.53.24H97.46v9.52h3.8V10.34h3.06a2.53,2.53,0,0,1,1.75.44c.21.21.45.7.47,1.9v4h3.89V12.52a5.39,5.39,0,0,0-.5-2.65A2.93,2.93,0,0,0,108.73,8.73Z" transform="translate(0 0)"/><rect class="cls-1" x="65.12" y="0.01" width="12.36" height="3.35"/><rect class="cls-1" x="65.12" y="6.32" width="12.36" height="3.3"/><rect class="cls-1" x="65.12" y="13.29" width="12.36" height="3.4"/><rect class="cls-1" x="81.3" y="0.01" width="12.36" height="3.35"/><rect class="cls-1" x="81.3" y="6.32" width="12.36" height="3.3"/><rect class="cls-1" x="81.3" y="13.29" width="12.36" height="3.4"/><rect class="cls-2" y="0.01" width="3.3" height="3.3"/><path class="cls-1" d="M58.18,29.53a2.7,2.7,0,0,1-.67.76,2.81,2.81,0,0,1-.91.47,3.91,3.91,0,0,1-1.08.15,3.65,3.65,0,0,1-1.23-.21,3.26,3.26,0,0,1-1-.63,2.15,2.15,0,0,1-.48-.6,3.43,3.43,0,0,1-.25-.7,4.78,4.78,0,0,1-.08-.84v-2a4.58,4.58,0,0,1,.08-.83,2.92,2.92,0,0,1,.25-.7,2.2,2.2,0,0,1,.48-.61,3.05,3.05,0,0,1,1-.62A3.43,3.43,0,0,1,55.52,23a3.25,3.25,0,0,1,2,.62,2.84,2.84,0,0,1,1,1.8H57.24a1.79,1.79,0,0,0-.58-1A1.63,1.63,0,0,0,55.52,24a2.07,2.07,0,0,0-.7.13,1.67,1.67,0,0,0-.55.35,1.46,1.46,0,0,0-.26.34,1.2,1.2,0,0,0-.15.45,3.72,3.72,0,0,0-.08.67v2a3.72,3.72,0,0,0,.08.67A1.3,1.3,0,0,0,54,29a1.7,1.7,0,0,0,.26.34,1.58,1.58,0,0,0,.55.34,1.85,1.85,0,0,0,.7.13,1.69,1.69,0,0,0,1.15-.37,1.93,1.93,0,0,0,.59-1h1.3A3,3,0,0,1,58.18,29.53Z" transform="translate(0 0)"/><path class="cls-1" d="M64.88,27.93a8,8,0,0,1-.08.84,2.9,2.9,0,0,1-.24.7,2.15,2.15,0,0,1-.48.6,3.26,3.26,0,0,1-1,.63,3.53,3.53,0,0,1-1.25.21,3.42,3.42,0,0,1-1.23-.21,3.26,3.26,0,0,1-1-.63,2.15,2.15,0,0,1-.48-.6,2.9,2.9,0,0,1-.24-.7,4,4,0,0,1-.09-.84v-2a3.84,3.84,0,0,1,.09-.83,2.9,2.9,0,0,1,.24-.7,2.2,2.2,0,0,1,.48-.61,3.05,3.05,0,0,1,1-.62A3.43,3.43,0,0,1,61.83,23a3.54,3.54,0,0,1,1.25.22,3.05,3.05,0,0,1,1,.62,2.2,2.2,0,0,1,.48.61,2.9,2.9,0,0,1,.24.7,7.53,7.53,0,0,1,.08.83v1C64.88,27.28,64.89,27.63,64.88,27.93Zm-1.3-2a3.7,3.7,0,0,0-.07-.66,1.47,1.47,0,0,0-1-1.14,1.91,1.91,0,0,0-.71-.14,2,2,0,0,0-.71.14,1.67,1.67,0,0,0-.55.35,1.46,1.46,0,0,0-.26.34,1.42,1.42,0,0,0-.16.45,4.93,4.93,0,0,0-.07.66v2a4.93,4.93,0,0,0,.07.66,1.48,1.48,0,0,0,.16.46,1.64,1.64,0,0,0,.26.33,1.54,1.54,0,0,0,.55.36,2,2,0,0,0,1.42,0,1.58,1.58,0,0,0,.56-.36,1.64,1.64,0,0,0,.26-.33,1.77,1.77,0,0,0,.15-.46,3.7,3.7,0,0,0,.07-.66v-1c0-.41,0-.74,0-1Z" transform="translate(0 0)"/><path class="cls-1" d="M71.82,30.85V25.59l-2,3.83h-1l-2-3.83v5.26H65.61V23H66.9l2.48,4.89L71.82,23h1.29v7.87Z" transform="translate(0 0)"/><path class="cls-1" d="M80.34,30.85V25.59l-2,3.83h-1l-2-3.83v5.26H74.13V23h1.29l2.49,4.89L80.34,23h1.29v7.87Z" transform="translate(0 0)"/><path class="cls-1" d="M82.65,30.85V23h5.44v1H83.94v2.3h3.54v1.1H83.94v2.36h4.15v1.08Z" transform="translate(0 0)"/><path class="cls-1" d="M93.36,30.85l-1.79-3.32H90v3.32H88.66V23H92a3.36,3.36,0,0,1,1.09.17,2.23,2.23,0,0,1,.83.48,2.13,2.13,0,0,1,.54.72,2.48,2.48,0,0,1,.18.93,1.92,1.92,0,0,1-.49,1.37,2.55,2.55,0,0,1-1.21.72l2,3.48Zm-.45-6.47a1.58,1.58,0,0,0-1-.33H90v2.48h1.91a1.58,1.58,0,0,0,1-.33,1.24,1.24,0,0,0,0-1.82Z" transform="translate(0 0)"/><path class="cls-1" d="M100.7,29.53a2.7,2.7,0,0,1-.67.76,2.81,2.81,0,0,1-.91.47,3.52,3.52,0,0,1-1.12.15,3.65,3.65,0,0,1-1.23-.21,3.26,3.26,0,0,1-1-.63,2.15,2.15,0,0,1-.48-.6,3.43,3.43,0,0,1-.25-.7,4.78,4.78,0,0,1-.08-.84v-2A4.58,4.58,0,0,1,95,25.1a2.92,2.92,0,0,1,.25-.7,2.2,2.2,0,0,1,.48-.61,3.05,3.05,0,0,1,1-.62A3.47,3.47,0,0,1,98,22.91a3.25,3.25,0,0,1,2,.62,2.84,2.84,0,0,1,1,1.8H99.76a1.79,1.79,0,0,0-.58-1A1.66,1.66,0,0,0,98,24a2.07,2.07,0,0,0-.7.13,1.67,1.67,0,0,0-.55.35,1.46,1.46,0,0,0-.26.34,1.2,1.2,0,0,0-.15.45,3.72,3.72,0,0,0-.08.67v2a3.72,3.72,0,0,0,.08.67,1.2,1.2,0,0,0,.15.45,1.7,1.7,0,0,0,.26.34,1.58,1.58,0,0,0,.55.34,1.85,1.85,0,0,0,.7.13,1.69,1.69,0,0,0,1.15-.37,1.93,1.93,0,0,0,.59-1H101A3.07,3.07,0,0,1,100.7,29.53Z" transform="translate(0 0)"/><path class="cls-1" d="M101.6,30.85V23H107v1h-4.11v2.3h3.54v1.1h-3.54v2.36H107v1.08Z" transform="translate(0 0)"/></g><path class="cls-3" d="M7.75,29.32a2.66,2.66,0,0,1-.58,1,3,3,0,0,1-1.06.7,3.55,3.55,0,0,1-1.24.21A3.18,3.18,0,0,1,3.66,31a3,3,0,0,1-1-.64,2.26,2.26,0,0,1-.47-.62A2.7,2.7,0,0,1,2,29a5.41,5.41,0,0,1-.09-.85c0-.32,0-.66,0-1s0-.73,0-1A5.41,5.41,0,0,1,2,25.2a2.83,2.83,0,0,1,.24-.71,2.26,2.26,0,0,1,.47-.62,3,3,0,0,1,1-.64A3.14,3.14,0,0,1,4.87,23a3.37,3.37,0,0,1,1.19.2,2.73,2.73,0,0,1,1.52,1.33,3.46,3.46,0,0,1,.32,1H6.63a1.87,1.87,0,0,0-.61-1,1.78,1.78,0,0,0-1.15-.36,1.73,1.73,0,0,0-.69.13,1.7,1.7,0,0,0-.54.36,1.72,1.72,0,0,0-.25.35,1.38,1.38,0,0,0-.15.46,5.32,5.32,0,0,0-.08.68c0,.27,0,.6,0,1s0,.75,0,1a5.1,5.1,0,0,0,.08.68,1.44,1.44,0,0,0,.15.47,2,2,0,0,0,.25.34,1.7,1.7,0,0,0,.54.36,1.95,1.95,0,0,0,1.45,0,1.63,1.63,0,0,0,.6-.42A1.53,1.53,0,0,0,6.56,29a2.53,2.53,0,0,0,.09-.7v-.46H4.87v-1H7.92V28A4.43,4.43,0,0,1,7.75,29.32Z" transform="translate(0 0)"/><path class="cls-3" d="M13.8,31.12,12,27.73H10.46v3.39H9.19v-8h3.24a3.25,3.25,0,0,1,1.07.17,2.34,2.34,0,0,1,.81.49,2,2,0,0,1,.52.74,2.3,2.3,0,0,1,.19.95,2,2,0,0,1-.48,1.41,2.4,2.4,0,0,1-1.19.72l1.92,3.56Zm-.44-6.61a1.54,1.54,0,0,0-1-.34H10.46v2.54h1.87a1.53,1.53,0,0,0,1-.33,1.32,1.32,0,0,0,0-1.87Z" transform="translate(0 0)"/><path class="cls-3" d="M22,28.15a4.46,4.46,0,0,1-.08.85,2.69,2.69,0,0,1-.23.71,2.26,2.26,0,0,1-.47.62,3,3,0,0,1-1,.64,3.23,3.23,0,0,1-1.22.22A3.19,3.19,0,0,1,17.76,31a2.83,2.83,0,0,1-1-.64,2.08,2.08,0,0,1-.47-.62,2.7,2.7,0,0,1-.24-.71,5.41,5.41,0,0,1-.09-.85c0-.32,0-.66,0-1s0-.73,0-1a5.41,5.41,0,0,1,.09-.86,2.83,2.83,0,0,1,.24-.71,2.08,2.08,0,0,1,.47-.62,3,3,0,0,1,1-.64A3.19,3.19,0,0,1,19,23a3.23,3.23,0,0,1,1.22.22,3.13,3.13,0,0,1,1,.64,2.26,2.26,0,0,1,.47.62,2.81,2.81,0,0,1,.23.71,4.49,4.49,0,0,1,.08.86c0,.31,0,.66,0,1S22,27.83,22,28.15Zm-1.27-2.06a4.07,4.07,0,0,0-.07-.68,1.38,1.38,0,0,0-.15-.46,1.72,1.72,0,0,0-.25-.35,1.64,1.64,0,0,0-.55-.36,1.73,1.73,0,0,0-.69-.13,1.78,1.78,0,0,0-.7.13,1.64,1.64,0,0,0-.55.36,1.72,1.72,0,0,0-.25.35,2.07,2.07,0,0,0-.15.46,4.07,4.07,0,0,0-.07.68c0,.27,0,.6,0,1s0,.75,0,1a4,4,0,0,0,.07.68,1.91,1.91,0,0,0,.15.46,1.72,1.72,0,0,0,.25.35,1.64,1.64,0,0,0,.55.36,1.78,1.78,0,0,0,.7.14,1.74,1.74,0,0,0,.69-.14,1.64,1.64,0,0,0,.55-.36,1.72,1.72,0,0,0,.25-.35,1.31,1.31,0,0,0,.15-.46,4,4,0,0,0,.07-.68c0-.26,0-.6,0-1S20.71,26.36,20.69,26.09Z" transform="translate(0 0)"/><path class="cls-3" d="M29,28.15a5.41,5.41,0,0,1-.09.85,2.37,2.37,0,0,1-.23.71,2.26,2.26,0,0,1-.47.62,3,3,0,0,1-1,.64,3.23,3.23,0,0,1-1.22.22A3.11,3.11,0,0,1,24.75,31a2.87,2.87,0,0,1-1-.64,2.26,2.26,0,0,1-.47-.62,2.7,2.7,0,0,1-.24-.71,5.41,5.41,0,0,1-.09-.85c0-.32,0-.66,0-1s0-.73,0-1a5.41,5.41,0,0,1,.09-.86,2.83,2.83,0,0,1,.24-.71,2.26,2.26,0,0,1,.47-.62,3,3,0,0,1,1-.64A3.11,3.11,0,0,1,26,23a3.23,3.23,0,0,1,1.22.22,3.13,3.13,0,0,1,1,.64,2.26,2.26,0,0,1,.47.62,2.46,2.46,0,0,1,.23.71,5.41,5.41,0,0,1,.09.86c0,.31,0,.66,0,1S29,27.83,29,28.15Zm-1.27-2.06c0-.27,0-.49-.07-.68a1.65,1.65,0,0,0-.16-.46,1.4,1.4,0,0,0-.25-.35,1.7,1.7,0,0,0-.54-.36,1.95,1.95,0,0,0-1.4,0,1.7,1.7,0,0,0-.54.36,1.77,1.77,0,0,0-.26.35,2.07,2.07,0,0,0-.15.46,5.51,5.51,0,0,0-.07.68c0,.27,0,.6,0,1s0,.75,0,1a5.31,5.31,0,0,0,.07.68,1.91,1.91,0,0,0,.15.46,1.77,1.77,0,0,0,.26.35,1.7,1.7,0,0,0,.54.36,1.82,1.82,0,0,0,1.4,0,1.7,1.7,0,0,0,.54-.36,1.4,1.4,0,0,0,.25-.35,1.54,1.54,0,0,0,.16-.46c0-.18.05-.41.07-.68s0-.6,0-1S27.69,26.36,27.68,26.09Z" transform="translate(0 0)"/><path class="cls-3" d="M36,29.83a2,2,0,0,1-.52.71,2.14,2.14,0,0,1-.8.44,3.2,3.2,0,0,1-1,.14H30.25v-8h3.24a2.69,2.69,0,0,1,1.85.59A2,2,0,0,1,36,25.28a1.74,1.74,0,0,1-.1.61,1.91,1.91,0,0,1-.26.49,1.82,1.82,0,0,1-.35.38,1.69,1.69,0,0,1-.41.23,1.72,1.72,0,0,1,.46.25,1.85,1.85,0,0,1,.4.39,1.78,1.78,0,0,1,.28.53,2.17,2.17,0,0,1,.11.69A2.32,2.32,0,0,1,36,29.83Zm-1.58-5.36a1.53,1.53,0,0,0-1-.3H31.51v2.31h1.88a1.58,1.58,0,0,0,1-.29,1,1,0,0,0,.38-.86A1,1,0,0,0,34.37,24.47Zm.15,3.45a1.38,1.38,0,0,0-1-.34h-2V30h2a1.39,1.39,0,0,0,1-.35,1.16,1.16,0,0,0,.36-.88A1.13,1.13,0,0,0,34.52,27.92Z" transform="translate(0 0)"/><path class="cls-3" d="M37.43,31.12v-8h5.33v1.09H38.69v2.35h3.47v1.09H38.69V30h4.07v1.09Z" transform="translate(0 0)"/><path class="cls-3" d="M43.91,31.12v-8h5.33v1.09H45.17v2.35h3.47v1.09H45.17V30h4.07v1.09Z" transform="translate(0 0)"/></g></svg>