<svg id="레이어_1" data-name="레이어 1" xmlns="http://www.w3.org/2000/svg" viewBox="0 0 110.88 28.58"><defs><style>.cls-1{fill:#fff;}.cls-2{fill:#00adee;}.cls-3{fill:#2c8bde;}</style></defs><g id="레이어_1-2" data-name="레이어 1-2"><g id="레이어_1-2-2" data-name="레이어 1-2-2"><polygon class="cls-1" points="23.28 13.29 23.28 0.25 23.28 0.01 23.03 0.01 19.65 0.01 19.41 0.01 19.41 0.25 19.41 16.45 19.41 16.69 19.65 16.69 30.11 16.69 31.64 13.29 23.28 13.29"/><polygon class="cls-1" points="43.2 0.01 39.03 0.01 33.08 16.69 33.42 16.69 37.14 16.69 41.08 4.99 44.91 16.69 49.1 16.69 43.2 0.01"/><polygon class="cls-1" points="48.75 0.01 48.75 3.36 53.61 3.36 53.61 16.69 57.51 16.69 57.51 3.36 62.35 3.36 62.35 0.01 48.75 0.01"/><path class="cls-1" d="M14.49,1.32a5.92,5.92,0,0,0-4-1.31H3.3v3.3H10a2.51,2.51,0,0,1,1.65.48,2.06,2.06,0,0,1,.55,1.62,2.19,2.19,0,0,1-.56,1.66A2.33,2.33,0,0,1,10,7.59H3.3v9.1H7.15V10.87h3.12a6.45,6.45,0,0,0,4.22-1.25c1-.83,1.51-2.26,1.51-4.24A5.17,5.17,0,0,0,14.49,1.32Z" transform="translate(0 0)"/><path class="cls-1" d="M108.73,8.73a3.34,3.34,0,0,0,1.54-1.48,5.19,5.19,0,0,0,.61-2.38,4.82,4.82,0,0,0-.32-1.8,4.87,4.87,0,0,0-.85-1.42A4.06,4.06,0,0,0,108.1.45,7.19,7.19,0,0,0,105.46,0h-8V3.3h7.29a3.14,3.14,0,0,1,1.45.25,1.8,1.8,0,0,1,.8,1.77,1.57,1.57,0,0,1-.82,1.6,3.64,3.64,0,0,1-1.53.24H97.46v9.52h3.8V10.34h3.06a2.53,2.53,0,0,1,1.75.44c.21.21.45.7.47,1.9v4h3.89V12.52a5.39,5.39,0,0,0-.5-2.65A2.93,2.93,0,0,0,108.73,8.73Z" transform="translate(0 0)"/><rect class="cls-1" x="65.12" y="0.01" width="12.36" height="3.35"/><rect class="cls-1" x="65.12" y="6.32" width="12.36" height="3.3"/><rect class="cls-1" x="65.12" y="13.29" width="12.36" height="3.4"/><rect class="cls-1" x="81.3" y="0.01" width="12.36" height="3.35"/><rect class="cls-1" x="81.3" y="6.32" width="12.36" height="3.3"/><rect class="cls-1" x="81.3" y="13.29" width="12.36" height="3.4"/><rect class="cls-2" y="0.01" width="3.3" height="3.3"/></g><path class="cls-3" d="M27,28.53,25.6,26.07l-1.39,2.46H23.1l2-3.29-1.86-3.12h1.12l1.26,2.29,1.27-2.29H28l-1.85,3.12,2,3.29Z" transform="translate(0 0)"/><path class="cls-3" d="M28.55,28.53v-.82l2.47-3a1.66,1.66,0,0,0,.26-.42,1.18,1.18,0,0,0,.08-.43,1,1,0,0,0-.24-.71.9.9,0,0,0-.7-.27,1.07,1.07,0,0,0-.35.06.75.75,0,0,0-.3.17.81.81,0,0,0-.21.3,1.26,1.26,0,0,0-.08.46h-.92a2,2,0,0,1,.14-.74,1.61,1.61,0,0,1,.39-.57,1.69,1.69,0,0,1,.59-.37,2.17,2.17,0,0,1,.74-.13,2.28,2.28,0,0,1,.76.13,1.5,1.5,0,0,1,.58.36,1.59,1.59,0,0,1,.38.57,2,2,0,0,1,.14.74,1.49,1.49,0,0,1-.16.73,3.53,3.53,0,0,1-.45.66l-2,2.46h2.61v.82Z" transform="translate(0 0)"/><path class="cls-3" d="M37.78,27.5a1.62,1.62,0,0,1-1,.91,2.35,2.35,0,0,1-.77.12h-2.6V22.12h2.5a2,2,0,0,1,1.41.47,1.62,1.62,0,0,1,.52,1.28,1.43,1.43,0,0,1-.07.48,2.13,2.13,0,0,1-.2.4,1.35,1.35,0,0,1-.28.3,1.09,1.09,0,0,1-.31.18,2.16,2.16,0,0,1,.36.2,1.83,1.83,0,0,1,.3.32,1.4,1.4,0,0,1,.22.42,1.82,1.82,0,0,1,.08.55A2.13,2.13,0,0,1,37.78,27.5Zm-1.22-4.27a1.13,1.13,0,0,0-.75-.24H34.37v1.84h1.44a1.13,1.13,0,0,0,.75-.24.94.94,0,0,0,0-1.36ZM36.68,26a1.06,1.06,0,0,0-.78-.27H34.37v1.95H35.9a1.06,1.06,0,0,0,.78-.27,1,1,0,0,0,.27-.71A.94.94,0,0,0,36.68,26Z" transform="translate(0 0)"/><path class="cls-3" d="M39.14,28.53V22.12h4.09V23H40.11v1.87h2.66v.87H40.11v1.92h3.12v.88Z" transform="translate(0 0)"/><path class="cls-3" d="M44.34,28.53V22.12h4.09V23H45.31v1.87H48v.87H45.31v1.92h3.12v.88Z" transform="translate(0 0)"/><path class="cls-1" d="M55.55,27.46a2.38,2.38,0,0,1-.51.62,2.14,2.14,0,0,1-.68.37,2.47,2.47,0,0,1-.82.13,2.32,2.32,0,0,1-.92-.18,2.14,2.14,0,0,1-.76-.5,1.86,1.86,0,0,1-.36-.5,2.38,2.38,0,0,1-.18-.57,3.47,3.47,0,0,1-.07-.68c0-.24,0-.52,0-.83s0-.58,0-.83a3.47,3.47,0,0,1,.07-.68,2.7,2.7,0,0,1,.18-.57,1.82,1.82,0,0,1,.36-.49,2.34,2.34,0,0,1,1.68-.69,2.2,2.2,0,0,1,2.29,2h-1a1.57,1.57,0,0,0-.44-.8,1.2,1.2,0,0,0-.86-.3A1.35,1.35,0,0,0,53,23a1.2,1.2,0,0,0-.41.28,1.26,1.26,0,0,0-.19.28,1.15,1.15,0,0,0-.12.37,3.54,3.54,0,0,0-.06.54c0,.22,0,.49,0,.81s0,.6,0,.81a3.69,3.69,0,0,0,.06.55,1.24,1.24,0,0,0,.12.37,1.2,1.2,0,0,0,.19.27,1.07,1.07,0,0,0,.41.28,1.36,1.36,0,0,0,.53.11,1.2,1.2,0,0,0,.87-.31,1.62,1.62,0,0,0,.44-.79h1A2.74,2.74,0,0,1,55.55,27.46Z" transform="translate(0 0)"/><path class="cls-1" d="M61.27,26.15a4.45,4.45,0,0,1-.07.68,1.73,1.73,0,0,1-.18.57,1.66,1.66,0,0,1-.36.5,2.19,2.19,0,0,1-.75.5,2.39,2.39,0,0,1-.94.18A2.34,2.34,0,0,1,58,28.4a2.19,2.19,0,0,1-.75-.5,1.66,1.66,0,0,1-.36-.5,2,2,0,0,1-.19-.57,4.53,4.53,0,0,1-.06-.68c0-.24,0-.52,0-.83s0-.58,0-.83a4.53,4.53,0,0,1,.06-.68,2.25,2.25,0,0,1,.19-.57,1.63,1.63,0,0,1,.36-.49,2.38,2.38,0,0,1,.75-.51,2.34,2.34,0,0,1,.93-.18,2.3,2.3,0,0,1,1.69.69,1.63,1.63,0,0,1,.36.49,1.9,1.9,0,0,1,.18.57,4.45,4.45,0,0,1,.07.68c0,.25,0,.53,0,.83S61.27,25.91,61.27,26.15Zm-1-1.63c0-.22,0-.4,0-.54a1.46,1.46,0,0,0-.12-.37,1.73,1.73,0,0,0-.19-.28,1.34,1.34,0,0,0-.42-.28,1.24,1.24,0,0,0-.54-.11,1.17,1.17,0,0,0-.53.11,1.15,1.15,0,0,0-.42.28,1.79,1.79,0,0,0-.2.28,1.16,1.16,0,0,0-.11.37,3.39,3.39,0,0,0-.06.54c0,.21,0,.48,0,.8s0,.6,0,.81a3.69,3.69,0,0,0,.06.54,1.24,1.24,0,0,0,.11.37,1.35,1.35,0,0,0,.2.27,1.17,1.17,0,0,0,.42.29,1.32,1.32,0,0,0,.53.11,1.41,1.41,0,0,0,.54-.11,1.37,1.37,0,0,0,.42-.29,1.31,1.31,0,0,0,.19-.27,1.61,1.61,0,0,0,.12-.37c0-.15,0-.33,0-.54s0-.48,0-.81S60.3,24.73,60.29,24.52Z" transform="translate(0 0)"/><path class="cls-1" d="M67.17,28.53V24.24l-1.48,3.13H65l-1.51-3.13v4.29h-1V22.12h1l1.87,4,1.84-4h1v6.41Z" transform="translate(0 0)"/><path class="cls-1" d="M74.26,28.53V24.24l-1.47,3.13h-.72l-1.52-3.13v4.29h-1V22.12h1l1.88,4,1.83-4h1v6.41Z" transform="translate(0 0)"/><path class="cls-1" d="M76.67,28.53V22.12h4.1V23H77.65v1.87h2.66v.87H77.65v1.92h3.12v.88Z" transform="translate(0 0)"/><path class="cls-1" d="M85.41,28.53l-1.35-2.7H82.85v2.7h-1V22.12h2.48a2.31,2.31,0,0,1,.82.14,1.89,1.89,0,0,1,.63.38,1.75,1.75,0,0,1,.4.6,2,2,0,0,1,.14.75A1.63,1.63,0,0,1,86,25.11a1.81,1.81,0,0,1-.91.58l1.48,2.84Zm-.33-5.27a1.17,1.17,0,0,0-.79-.27H82.85v2h1.44a1.21,1.21,0,0,0,.79-.26,1,1,0,0,0,.3-.75A.94.94,0,0,0,85.08,23.26Z" transform="translate(0 0)"/><path class="cls-1" d="M91.62,27.46a2.35,2.35,0,0,1-.5.62,2.19,2.19,0,0,1-.69.37,2.37,2.37,0,0,1-.81.13,2.39,2.39,0,0,1-1.69-.68,2.11,2.11,0,0,1-.36-.5,2.38,2.38,0,0,1-.18-.57,4.45,4.45,0,0,1-.07-.68c0-.24,0-.52,0-.83s0-.58,0-.83a4.45,4.45,0,0,1,.07-.68,2.7,2.7,0,0,1,.18-.57,2.06,2.06,0,0,1,.36-.49,2.54,2.54,0,0,1,.76-.51,2.34,2.34,0,0,1,.93-.18,2.2,2.2,0,0,1,2.28,2h-1a1.64,1.64,0,0,0-.43-.8,1.22,1.22,0,0,0-.86-.3,1.29,1.29,0,0,0-.53.1,1.24,1.24,0,0,0-.42.28,1.26,1.26,0,0,0-.19.28,1.46,1.46,0,0,0-.12.37,3.54,3.54,0,0,0-.06.54c0,.22,0,.49,0,.81s0,.6,0,.81a3.69,3.69,0,0,0,.06.55,1.61,1.61,0,0,0,.12.37,1.2,1.2,0,0,0,.19.27,1.11,1.11,0,0,0,.42.28,1.29,1.29,0,0,0,.53.11,1.18,1.18,0,0,0,.86-.31,1.54,1.54,0,0,0,.44-.79h1A2.74,2.74,0,0,1,91.62,27.46Z" transform="translate(0 0)"/><path class="cls-1" d="M93,28.53V22.12h4.1V23H94v1.87h2.66v.87H94v1.92h3.12v.88Z" transform="translate(0 0)"/></g></svg>